<?xml version="1.0" standalone="no"?>
<!DOCTYPE svg PUBLIC "-//W3C//DTD SVG 20010904//EN"
 "http://www.w3.org/TR/2001/REC-SVG-20010904/DTD/svg10.dtd">
<svg version="1.0" xmlns="http://www.w3.org/2000/svg"
 width="257.000000pt" height="171.000000pt" viewBox="0 0 257.000000 171.000000"
 preserveAspectRatio="xMidYMid meet">
<metadata>
Created by potrace 1.11, written by Peter Selinger 2001-2013
</metadata>
<g transform="translate(0.000000,171.000000) scale(0.100000,-0.100000)"
fill="#000000" stroke="none">
<path d="M0 855 l0 -855 1285 0 1285 0 0 855 0 855 -642 0 -643 -1 60 -34 c33
-19 148 -85 255 -147 l195 -113 0 -304 0 -304 -240 -139 c-132 -77 -249 -144
-261 -149 -17 -9 -62 14 -280 140 l-259 149 -3 121 c-1 67 0 121 4 121 3 0
110 -60 238 -134 127 -74 243 -140 258 -147 25 -11 37 -6 165 68 l138 80 0
178 0 179 -143 83 c-124 72 -146 81 -162 70 -11 -6 -20 -14 -20 -17 1 -3 64
-41 140 -85 l140 -79 0 -151 0 -150 -117 -68 c-64 -37 -121 -66 -127 -63 -6 2
-123 69 -261 148 l-250 144 -3 122 c-2 82 1 122 8 122 8 0 220 -119 473 -267
4 -2 7 6 7 19 0 21 -33 43 -240 162 -132 76 -240 141 -240 145 0 5 105 68 233
141 127 74 241 139 252 147 16 11 -85 13 -613 13 l-632 0 0 -855z m2443 618
c-57 -2 -149 -2 -205 0 -57 1 -11 3 102 3 113 0 159 -2 103 -3z m-215 -1140
c-10 -2 -28 -2 -40 0 -13 2 -5 4 17 4 22 1 32 -1 23 -4z m-136 -65 c-7 -7 -12
-8 -12 -2 0 14 12 26 19 19 2 -3 -1 -11 -7 -17z m152 6 c23 -23 20 -44 -6 -43
-17 1 -19 2 -5 6 35 9 8 43 -35 43 -33 0 -59 -36 -30 -43 13 -4 11 -5 -5 -6
-27 -1 -29 7 -7 37 18 26 65 30 88 6z m83 -46 c-3 -8 -6 -5 -6 6 -1 11 2 17 5
13 3 -3 4 -12 1 -19z m-147 -42 c0 -2 -9 -6 -20 -9 -11 -3 -20 -1 -20 4 0 5 9
9 20 9 11 0 20 -2 20 -4z m-86 -32 c3 -8 2 -12 -4 -9 -6 3 -10 10 -10 16 0 14
7 11 14 -7z m152 -9 c-23 -17 -62 -20 -71 -5 -4 7 2 9 18 4 14 -3 34 -1 44 5
26 15 31 13 9 -4z m64 -9 c0 -2 -8 -10 -17 -17 -16 -13 -17 -12 -4 4 13 16 21
21 21 13z"/>
</g>
</svg>
